<svg data-v-d3f97b9e="" xmlns="http://www.w3.org/2000/svg" viewBox="0 0 661 90"><!----><!----><!----><g data-v-d3f97b9e="" id="0efe1f84-3e29-42a6-a2d7-c3aa56026e2a" fill="#000000" transform="matrix(4.44444465637207,0,0,4.44444465637207,102.86558532714844,5.312498092651367)"><path d="M7.73 6.26L7.73 6.26L7.73 6.26Q7.73 7.35 7.15 7.98L7.15 7.98L7.15 7.98Q6.58 8.61 5.64 8.89L5.64 8.89L5.64 8.89Q5.87 9.17 6.22 9.65L6.22 9.65L6.22 9.65Q6.58 10.12 6.96 10.69L6.96 10.69L6.96 10.69Q7.34 11.26 7.70 11.87L7.70 11.87L7.70 11.87Q8.06 12.49 8.32 13.05L8.32 13.05L7.29 13.05L7.29 13.05Q7 12.49 6.66 11.93L6.66 11.93L6.66 11.93Q6.31 11.37 5.96 10.84L5.96 10.84L5.96 10.84Q5.60 10.32 5.26 9.87L5.26 9.87L5.26 9.87Q4.93 9.42 4.68 9.09L4.68 9.09L4.68 9.09Q4.23 9.13 3.78 9.13L3.78 9.13L2.21 9.13L2.21 13.05L1.26 13.05L1.26 3.53L1.26 3.53Q1.76 3.39 2.44 3.32L2.44 3.32L2.44 3.32Q3.12 3.26 3.70 3.26L3.70 3.26L3.70 3.26Q5.70 3.26 6.71 4.02L6.71 4.02L6.71 4.02Q7.73 4.77 7.73 6.26ZM3.81 4.09L3.81 4.09L3.81 4.09Q3.28 4.09 2.88 4.12L2.88 4.12L2.88 4.12Q2.48 4.16 2.21 4.19L2.21 4.19L2.21 8.32L3.53 8.32L3.53 8.32Q4.19 8.32 4.77 8.25L4.77 8.25L4.77 8.25Q5.36 8.19 5.80 7.97L5.80 7.97L5.80 7.97Q6.23 7.76 6.48 7.35L6.48 7.35L6.48 7.35Q6.73 6.94 6.73 6.24L6.73 6.24L6.73 6.24Q6.73 5.60 6.48 5.18L6.48 5.18L6.48 5.18Q6.23 4.76 5.82 4.52L5.82 4.52L5.82 4.52Q5.42 4.27 4.89 4.18L4.89 4.18L4.89 4.18Q4.37 4.09 3.81 4.09ZM9.42 9.42L9.42 9.42L9.42 9.42Q9.42 8.47 9.70 7.76L9.70 7.76L9.70 7.76Q9.97 7.06 10.41 6.58L10.41 6.58L10.41 6.58Q10.85 6.10 11.42 5.87L11.42 5.87L11.42 5.87Q11.98 5.64 12.59 5.64L12.59 5.64L12.59 5.64Q13.92 5.64 14.71 6.51L14.71 6.51L14.71 6.51Q15.50 7.38 15.50 9.18L15.50 9.18L15.50 9.18Q15.50 9.30 15.49 9.41L15.49 9.41L15.49 9.41Q15.48 9.52 15.47 9.62L15.47 9.62L10.39 9.62L10.39 9.62Q10.43 10.95 11.05 11.66L11.05 11.66L11.05 11.66Q11.66 12.38 13.01 12.38L13.01 12.38L13.01 12.38Q13.75 12.38 14.18 12.24L14.18 12.24L14.18 12.24Q14.62 12.10 14.81 12.00L14.81 12.00L14.98 12.78L14.98 12.78Q14.78 12.89 14.25 13.05L14.25 13.05L14.25 13.05Q13.71 13.20 12.98 13.20L12.98 13.20L12.98 13.20Q12.03 13.20 11.35 12.92L11.35 12.92L11.35 12.92Q10.68 12.64 10.25 12.14L10.25 12.14L10.25 12.14Q9.81 11.63 9.62 10.94L9.62 10.94L9.62 10.94Q9.42 10.25 9.42 9.42ZM10.42 8.85L14.56 8.85L14.56 8.85Q14.53 7.71 14.03 7.08L14.03 7.08L14.03 7.08Q13.52 6.45 12.60 6.45L12.60 6.45L12.60 6.45Q12.11 6.45 11.73 6.65L11.73 6.65L11.73 6.65Q11.34 6.85 11.05 7.17L11.05 7.17L11.05 7.17Q10.77 7.50 10.61 7.94L10.61 7.94L10.61 7.94Q10.44 8.37 10.42 8.85L10.42 8.85ZM18.38 3.51L18.38 5.81L21.27 5.81L21.27 6.58L18.38 6.58L18.38 10.43L18.38 10.43Q18.38 11.05 18.49 11.43L18.49 11.43L18.49 11.43Q18.59 11.82 18.79 12.03L18.79 12.03L18.79 12.03Q18.98 12.24 19.26 12.31L19.26 12.31L19.26 12.31Q19.54 12.38 19.88 12.38L19.88 12.38L19.88 12.38Q20.45 12.38 20.80 12.24L20.80 12.24L20.80 12.24Q21.15 12.11 21.35 12.00L21.35 12.00L21.57 12.75L21.57 12.75Q21.38 12.88 20.89 13.04L20.89 13.04L20.89 13.04Q20.40 13.20 19.82 13.20L19.82 13.20L19.82 13.20Q19.15 13.20 18.70 13.03L18.70 13.03L18.70 13.03Q18.24 12.85 17.97 12.49L17.97 12.49L17.97 12.49Q17.70 12.14 17.58 11.61L17.58 11.61L17.58 11.61Q17.47 11.07 17.47 10.35L17.47 10.35L17.47 3.68L18.38 3.51ZM25.23 12.39L25.23 12.39L25.23 12.39Q25.76 12.39 26.16 12.36L26.16 12.36L26.16 12.36Q26.56 12.32 26.84 12.26L26.84 12.26L26.84 9.72L26.84 9.72Q26.68 9.65 26.35 9.57L26.35 9.57L26.35 9.57Q26.01 9.49 25.42 9.49L25.42 9.49L25.42 9.49Q25.09 9.49 24.72 9.54L24.72 9.54L24.72 9.54Q24.36 9.59 24.05 9.75L24.05 9.75L24.05 9.75Q23.74 9.91 23.55 10.19L23.55 10.19L23.55 10.19Q23.35 10.47 23.35 10.93L23.35 10.93L23.35 10.93Q23.35 11.34 23.48 11.62L23.48 11.62L23.48 11.62Q23.62 11.90 23.86 12.07L23.86 12.07L23.86 12.07Q24.11 12.24 24.45 12.31L24.45 12.31L24.45 12.31Q24.79 12.39 25.23 12.39ZM25.14 5.64L25.14 5.64L25.14 5.64Q25.86 5.64 26.36 5.84L26.36 5.84L26.36 5.84Q26.85 6.05 27.16 6.41L27.16 6.41L27.16 6.41Q27.47 6.76 27.61 7.25L27.61 7.25L27.61 7.25Q27.75 7.74 27.75 8.32L27.75 8.32L27.75 12.88L27.75 12.88Q27.61 12.92 27.34 12.97L27.34 12.97L27.34 12.97Q27.08 13.02 26.73 13.08L26.73 13.08L26.73 13.08Q26.38 13.13 25.95 13.17L25.95 13.17L25.95 13.17Q25.52 13.20 25.07 13.20L25.07 13.20L25.07 13.20Q24.50 13.20 24.02 13.08L24.02 13.08L24.02 13.08Q23.53 12.95 23.18 12.68L23.18 12.68L23.18 12.68Q22.82 12.40 22.62 11.98L22.62 11.98L22.62 11.98Q22.41 11.55 22.41 10.93L22.41 10.93L22.41 10.93Q22.41 10.35 22.64 9.93L22.64 9.93L22.64 9.93Q22.86 9.51 23.27 9.23L23.27 9.23L23.27 9.23Q23.67 8.96 24.23 8.83L24.23 8.83L24.23 8.83Q24.79 8.71 25.45 8.71L25.45 8.71L25.45 8.71Q25.65 8.71 25.87 8.73L25.87 8.73L25.87 8.73Q26.08 8.75 26.29 8.79L26.29 8.79L26.29 8.79Q26.49 8.82 26.64 8.86L26.64 8.86L26.64 8.86Q26.78 8.89 26.84 8.92L26.84 8.92L26.84 8.47L26.84 8.47Q26.84 8.09 26.78 7.74L26.78 7.74L26.78 7.74Q26.73 7.38 26.54 7.09L26.54 7.09L26.54 7.09Q26.35 6.80 26.01 6.63L26.01 6.63L26.01 6.63Q25.66 6.45 25.10 6.45L25.10 6.45L25.10 6.45Q24.30 6.45 23.91 6.57L23.91 6.57L23.91 6.57Q23.52 6.68 23.34 6.75L23.34 6.75L23.21 5.95L23.21 5.95Q23.45 5.84 23.95 5.74L23.95 5.74L23.95 5.74Q24.44 5.64 25.14 5.64ZM32.54 5.67L32.54 5.67L32.54 5.67Q32.98 5.67 33.38 5.74L33.38 5.74L33.38 5.74Q33.78 5.81 33.94 5.88L33.94 5.88L33.75 6.66L33.75 6.66Q33.64 6.61 33.30 6.54L33.30 6.54L33.30 6.54Q32.96 6.48 32.40 6.48L32.40 6.48L32.40 6.48Q31.81 6.48 31.45 6.57L31.45 6.57L31.45 6.57Q31.09 6.65 30.98 6.71L30.98 6.71L30.98 13.05L30.07 13.05L30.07 6.15L30.07 6.15Q30.42 5.99 31.04 5.83L31.04 5.83L31.04 5.83Q31.65 5.67 32.54 5.67ZM41.06 2.18L41.06 12.82L41.06 12.82Q40.66 12.96 40.03 13.09L40.03 13.09L40.03 13.09Q39.40 13.22 38.43 13.22L38.43 13.22L38.43 13.22Q37.63 13.22 36.98 12.96L36.98 12.96L36.98 12.96Q36.33 12.70 35.86 12.21L35.86 12.21L35.86 12.21Q35.39 11.72 35.13 11.02L35.13 11.02L35.13 11.02Q34.87 10.32 34.87 9.44L34.87 9.44L34.87 9.44Q34.87 8.61 35.09 7.92L35.09 7.92L35.09 7.92Q35.31 7.22 35.73 6.72L35.73 6.72L35.73 6.72Q36.15 6.22 36.76 5.94L36.76 5.94L36.76 5.94Q37.37 5.66 38.15 5.66L38.15 5.66L38.15 5.66Q38.86 5.66 39.39 5.86L39.39 5.86L39.39 5.86Q39.91 6.06 40.15 6.24L40.15 6.24L40.15 2.35L41.06 2.18ZM40.15 12.19L40.15 7.13L40.15 7.13Q40.03 7.03 39.84 6.92L39.84 6.92L39.84 6.92Q39.65 6.80 39.40 6.71L39.40 6.71L39.40 6.71Q39.14 6.61 38.85 6.54L38.85 6.54L38.85 6.54Q38.56 6.48 38.23 6.48L38.23 6.48L38.23 6.48Q37.56 6.48 37.11 6.72L37.11 6.72L37.11 6.72Q36.65 6.96 36.37 7.36L36.37 7.36L36.37 7.36Q36.09 7.76 35.97 8.29L35.97 8.29L35.97 8.29Q35.84 8.83 35.84 9.44L35.84 9.44L35.84 9.44Q35.84 10.86 36.55 11.63L36.55 11.63L36.55 11.63Q37.27 12.39 38.44 12.39L38.44 12.39L38.44 12.39Q39.12 12.39 39.53 12.33L39.53 12.33L39.53 12.33Q39.94 12.26 40.15 12.19L40.15 12.19ZM43.04 9.42L43.04 9.42L43.04 9.42Q43.04 8.47 43.31 7.76L43.31 7.76L43.31 7.76Q43.58 7.06 44.02 6.58L44.02 6.58L44.02 6.58Q44.46 6.10 45.03 5.87L45.03 5.87L45.03 5.87Q45.60 5.64 46.20 5.64L46.20 5.64L46.20 5.64Q47.53 5.64 48.32 6.51L48.32 6.51L48.32 6.51Q49.11 7.38 49.11 9.18L49.11 9.18L49.11 9.18Q49.11 9.30 49.10 9.41L49.10 9.41L49.10 9.41Q49.10 9.52 49.08 9.62L49.08 9.62L44.00 9.62L44.00 9.62Q44.04 10.95 44.66 11.66L44.66 11.66L44.66 11.66Q45.28 12.38 46.62 12.38L46.62 12.38L46.62 12.38Q47.36 12.38 47.80 12.24L47.80 12.24L47.80 12.24Q48.23 12.10 48.43 12.00L48.43 12.00L48.59 12.78L48.59 12.78Q48.40 12.89 47.86 13.05L47.86 13.05L47.86 13.05Q47.32 13.20 46.59 13.20L46.59 13.20L46.59 13.20Q45.64 13.20 44.97 12.92L44.97 12.92L44.97 12.92Q44.30 12.64 43.86 12.14L43.86 12.14L43.86 12.14Q43.43 11.63 43.23 10.94L43.23 10.94L43.23 10.94Q43.04 10.25 43.04 9.42ZM44.03 8.85L48.17 8.85L48.17 8.85Q48.15 7.71 47.64 7.08L47.64 7.08L47.64 7.08Q47.14 6.45 46.21 6.45L46.21 6.45L46.21 6.45Q45.72 6.45 45.34 6.65L45.34 6.65L45.34 6.65Q44.95 6.85 44.67 7.17L44.67 7.17L44.67 7.17Q44.38 7.50 44.22 7.94L44.22 7.94L44.22 7.94Q44.06 8.37 44.03 8.85L44.03 8.85ZM56.90 2.18L56.90 12.82L56.90 12.82Q56.49 12.96 55.86 13.09L55.86 13.09L55.86 13.09Q55.23 13.22 54.26 13.22L54.26 13.22L54.26 13.22Q53.47 13.22 52.82 12.96L52.82 12.96L52.82 12.96Q52.16 12.70 51.70 12.21L51.70 12.21L51.70 12.21Q51.23 11.72 50.97 11.02L50.97 11.02L50.97 11.02Q50.71 10.32 50.71 9.44L50.71 9.44L50.71 9.44Q50.71 8.61 50.93 7.92L50.93 7.92L50.93 7.92Q51.14 7.22 51.56 6.72L51.56 6.72L51.56 6.72Q51.98 6.22 52.59 5.94L52.59 5.94L52.59 5.94Q53.20 5.66 53.98 5.66L53.98 5.66L53.98 5.66Q54.70 5.66 55.22 5.86L55.22 5.86L55.22 5.86Q55.75 6.06 55.99 6.24L55.99 6.24L55.99 2.35L56.90 2.18ZM55.99 12.19L55.99 7.13L55.99 7.13Q55.86 7.03 55.67 6.92L55.67 6.92L55.67 6.92Q55.48 6.80 55.23 6.71L55.23 6.71L55.23 6.71Q54.98 6.61 54.68 6.54L54.68 6.54L54.68 6.54Q54.39 6.48 54.07 6.48L54.07 6.48L54.07 6.48Q53.40 6.48 52.94 6.72L52.94 6.72L52.94 6.72Q52.49 6.96 52.21 7.36L52.21 7.36L52.21 7.36Q51.93 7.76 51.80 8.29L51.80 8.29L51.80 8.29Q51.67 8.83 51.67 9.44L51.67 9.44L51.67 9.44Q51.67 10.86 52.39 11.63L52.39 11.63L52.39 11.63Q53.10 12.39 54.28 12.39L54.28 12.39L54.28 12.39Q54.95 12.39 55.36 12.33L55.36 12.33L55.36 12.33Q55.78 12.26 55.99 12.19L55.99 12.19ZM68.77 7.56L68.77 3.35L69.72 3.35L69.72 13.05L68.77 13.05L68.77 8.39L63.50 8.39L63.50 13.05L62.55 13.05L62.55 3.35L63.50 3.35L63.50 7.56L68.77 7.56ZM71.75 9.42L71.75 9.42L71.75 9.42Q71.75 8.47 72.02 7.76L72.02 7.76L72.02 7.76Q72.30 7.06 72.74 6.58L72.74 6.58L72.74 6.58Q73.18 6.10 73.75 5.87L73.75 5.87L73.75 5.87Q74.31 5.64 74.91 5.64L74.91 5.64L74.91 5.64Q76.24 5.64 77.03 6.51L77.03 6.51L77.03 6.51Q77.83 7.38 77.83 9.18L77.83 9.18L77.83 9.18Q77.83 9.30 77.82 9.41L77.82 9.41L77.82 9.41Q77.81 9.52 77.80 9.62L77.80 9.62L72.72 9.62L72.72 9.62Q72.76 10.95 73.37 11.66L73.37 11.66L73.37 11.66Q73.99 12.38 75.33 12.38L75.33 12.38L75.33 12.38Q76.08 12.38 76.51 12.24L76.51 12.24L76.51 12.24Q76.94 12.10 77.14 12.00L77.14 12.00L77.31 12.78L77.31 12.78Q77.11 12.89 76.57 13.05L76.57 13.05L76.57 13.05Q76.03 13.20 75.31 13.20L75.31 13.20L75.31 13.20Q74.35 13.20 73.68 12.92L73.68 12.92L73.68 12.92Q73.01 12.64 72.58 12.14L72.58 12.14L72.58 12.14Q72.14 11.63 71.95 10.94L71.95 10.94L71.95 10.94Q71.75 10.25 71.75 9.42ZM72.74 8.85L76.89 8.85L76.89 8.85Q76.86 7.71 76.36 7.08L76.36 7.08L76.36 7.08Q75.85 6.45 74.93 6.45L74.93 6.45L74.93 6.45Q74.44 6.45 74.05 6.65L74.05 6.65L74.05 6.65Q73.67 6.85 73.38 7.17L73.38 7.17L73.38 7.17Q73.09 7.50 72.93 7.94L72.93 7.94L72.93 7.94Q72.77 8.37 72.74 8.85L72.74 8.85ZM85.61 2.18L85.61 12.82L85.61 12.82Q85.20 12.96 84.57 13.09L84.57 13.09L84.57 13.09Q83.94 13.22 82.98 13.22L82.98 13.22L82.98 13.22Q82.18 13.22 81.53 12.96L81.53 12.96L81.53 12.96Q80.88 12.70 80.41 12.21L80.41 12.21L80.41 12.21Q79.94 11.72 79.68 11.02L79.68 11.02L79.68 11.02Q79.42 10.32 79.42 9.44L79.42 9.44L79.42 9.44Q79.42 8.61 79.64 7.92L79.64 7.92L79.64 7.92Q79.86 7.22 80.28 6.72L80.28 6.72L80.28 6.72Q80.70 6.22 81.31 5.94L81.31 5.94L81.31 5.94Q81.91 5.66 82.70 5.66L82.70 5.66L82.70 5.66Q83.41 5.66 83.94 5.86L83.94 5.86L83.94 5.86Q84.46 6.06 84.70 6.24L84.70 6.24L84.70 2.35L85.61 2.18ZM84.70 12.19L84.70 7.13L84.70 7.13Q84.57 7.03 84.39 6.92L84.39 6.92L84.39 6.92Q84.20 6.80 83.94 6.71L83.94 6.71L83.94 6.71Q83.69 6.61 83.40 6.54L83.40 6.54L83.40 6.54Q83.10 6.48 82.78 6.48L82.78 6.48L82.78 6.48Q82.11 6.48 81.66 6.72L81.66 6.72L81.66 6.72Q81.20 6.96 80.92 7.36L80.92 7.36L80.92 7.36Q80.64 7.76 80.51 8.29L80.51 8.29L80.51 8.29Q80.39 8.83 80.39 9.44L80.39 9.44L80.39 9.44Q80.39 10.86 81.10 11.63L81.10 11.63L81.10 11.63Q81.82 12.39 82.99 12.39L82.99 12.39L82.99 12.39Q83.66 12.39 84.08 12.33L84.08 12.33L84.08 12.33Q84.49 12.26 84.70 12.19L84.70 12.19ZM92.74 12.68L92.74 12.21L92.74 12.21Q92.65 12.28 92.48 12.37L92.48 12.37L92.48 12.37Q92.32 12.46 92.07 12.56L92.07 12.56L92.07 12.56Q91.83 12.66 91.51 12.72L91.51 12.72L91.51 12.72Q91.20 12.78 90.80 12.78L90.80 12.78L90.80 12.78Q90.17 12.78 89.59 12.59L89.59 12.59L89.59 12.59Q89.00 12.39 88.56 11.97L88.56 11.97L88.56 11.97Q88.12 11.55 87.85 10.88L87.85 10.88L87.85 10.88Q87.58 10.22 87.58 9.27L87.58 9.27L87.58 9.27Q87.58 8.50 87.82 7.84L87.82 7.84L87.82 7.84Q88.06 7.18 88.50 6.70L88.50 6.70L88.50 6.70Q88.94 6.22 89.58 5.94L89.58 5.94L89.58 5.94Q90.22 5.67 91.01 5.67L91.01 5.67L91.01 5.67Q92.02 5.67 92.63 5.80L92.63 5.80L92.63 5.80Q93.24 5.94 93.63 6.06L93.63 6.06L93.63 12.67L93.63 12.67Q93.63 14.29 92.79 14.99L92.79 14.99L92.79 14.99Q91.95 15.68 90.26 15.68L90.26 15.68L90.26 15.68Q89.56 15.68 88.99 15.57L88.99 15.57L88.99 15.57Q88.42 15.47 88.02 15.33L88.02 15.33L88.20 14.50L88.20 14.50Q88.54 14.66 89.12 14.77L89.12 14.77L89.12 14.77Q89.70 14.88 90.29 14.88L90.29 14.88L90.29 14.88Q91.57 14.88 92.16 14.38L92.16 14.38L92.16 14.38Q92.74 13.89 92.74 12.68L92.74 12.68ZM92.72 11.35L92.72 6.69L92.72 6.69Q92.48 6.62 92.11 6.56L92.11 6.56L92.11 6.56Q91.73 6.50 91.03 6.50L91.03 6.50L91.03 6.50Q90.44 6.50 89.99 6.70L89.99 6.70L89.99 6.70Q89.53 6.90 89.21 7.27L89.21 7.27L89.21 7.27Q88.89 7.64 88.72 8.16L88.72 8.16L88.72 8.16Q88.55 8.67 88.55 9.28L88.55 9.28L88.55 9.28Q88.55 10.00 88.75 10.51L88.75 10.51L88.75 10.51Q88.94 11.02 89.26 11.34L89.26 11.34L89.26 11.34Q89.57 11.66 89.98 11.81L89.98 11.81L89.98 11.81Q90.38 11.96 90.80 11.96L90.80 11.96L90.80 11.96Q91.42 11.96 91.93 11.77L91.93 11.77L91.93 11.77Q92.44 11.59 92.72 11.35L92.72 11.35ZM95.61 9.42L95.61 9.42L95.61 9.42Q95.61 8.47 95.88 7.76L95.88 7.76L95.88 7.76Q96.15 7.06 96.59 6.58L96.59 6.58L96.59 6.58Q97.03 6.10 97.60 5.87L97.60 5.87L97.60 5.87Q98.17 5.64 98.77 5.64L98.77 5.64L98.77 5.64Q100.10 5.64 100.89 6.51L100.89 6.51L100.89 6.51Q101.68 7.38 101.68 9.18L101.68 9.18L101.68 9.18Q101.68 9.30 101.68 9.41L101.68 9.41L101.68 9.41Q101.67 9.52 101.65 9.62L101.65 9.62L96.57 9.62L96.57 9.62Q96.61 10.95 97.23 11.66L97.23 11.66L97.23 11.66Q97.85 12.38 99.19 12.38L99.19 12.38L99.19 12.38Q99.93 12.38 100.37 12.24L100.37 12.24L100.37 12.24Q100.80 12.10 101.00 12.00L101.00 12.00L101.16 12.78L101.16 12.78Q100.97 12.89 100.43 13.05L100.43 13.05L100.43 13.05Q99.89 13.20 99.16 13.20L99.16 13.20L99.16 13.20Q98.21 13.20 97.54 12.92L97.54 12.92L97.54 12.92Q96.87 12.64 96.43 12.14L96.43 12.14L96.43 12.14Q96.00 11.63 95.80 10.94L95.80 10.94L95.80 10.94Q95.61 10.25 95.61 9.42ZM96.60 8.85L100.74 8.85L100.74 8.85Q100.72 7.71 100.21 7.08L100.21 7.08L100.21 7.08Q99.71 6.45 98.78 6.45L98.78 6.45L98.78 6.45Q98.29 6.45 97.91 6.65L97.91 6.65L97.91 6.65Q97.52 6.85 97.24 7.17L97.24 7.17L97.24 7.17Q96.95 7.50 96.79 7.94L96.79 7.94L96.79 7.94Q96.63 8.37 96.60 8.85L96.60 8.85ZM104.62 13.05L103.71 13.05L103.71 2.35L104.62 2.18L104.62 6.02L104.62 6.02Q105.07 5.85 105.53 5.76L105.53 5.76L105.53 5.76Q105.99 5.67 106.46 5.67L106.46 5.67L106.46 5.67Q107.30 5.67 107.86 5.91L107.86 5.91L107.86 5.91Q108.42 6.15 108.75 6.59L108.75 6.59L108.75 6.59Q109.09 7.03 109.22 7.64L109.22 7.64L109.22 7.64Q109.35 8.26 109.35 9.00L109.35 9.00L109.35 13.05L108.44 13.05L108.44 9.30L108.44 9.30Q108.44 8.53 108.34 7.99L108.34 7.99L108.34 7.99Q108.23 7.46 107.99 7.13L107.99 7.13L107.99 7.13Q107.74 6.79 107.34 6.64L107.34 6.64L107.34 6.64Q106.93 6.50 106.32 6.50L106.32 6.50L106.32 6.50Q106.08 6.50 105.81 6.54L105.81 6.54L105.81 6.54Q105.53 6.58 105.29 6.63L105.29 6.63L105.29 6.63Q105.06 6.68 104.87 6.73L104.87 6.73L104.87 6.73Q104.68 6.79 104.62 6.82L104.62 6.82L104.62 13.05ZM117.85 9.44L117.85 9.44L117.85 9.44Q117.85 10.29 117.61 10.99L117.61 10.99L117.61 10.99Q117.36 11.69 116.92 12.18L116.92 12.18L116.92 12.18Q116.48 12.67 115.88 12.94L115.88 12.94L115.88 12.94Q115.28 13.22 114.55 13.22L114.55 13.22L114.55 13.22Q113.82 13.22 113.22 12.94L113.22 12.94L113.22 12.94Q112.62 12.67 112.17 12.18L112.17 12.18L112.17 12.18Q111.73 11.69 111.49 10.99L111.49 10.99L111.49 10.99Q111.24 10.29 111.24 9.44L111.24 9.44L111.24 9.44Q111.24 8.58 111.49 7.88L111.49 7.88L111.49 7.88Q111.73 7.18 112.17 6.68L112.17 6.68L112.17 6.68Q112.62 6.19 113.22 5.92L113.22 5.92L113.22 5.92Q113.82 5.64 114.55 5.64L114.55 5.64L114.55 5.64Q115.28 5.64 115.88 5.92L115.88 5.92L115.88 5.92Q116.48 6.19 116.92 6.68L116.92 6.68L116.92 6.68Q117.36 7.18 117.61 7.88L117.61 7.88L117.61 7.88Q117.85 8.58 117.85 9.44ZM116.89 9.44L116.89 9.44L116.89 9.44Q116.89 8.08 116.26 7.27L116.26 7.27L116.26 7.27Q115.63 6.47 114.55 6.47L114.55 6.47L114.55 6.47Q113.47 6.47 112.84 7.27L112.84 7.27L112.84 7.27Q112.21 8.08 112.21 9.44L112.21 9.44L112.21 9.44Q112.21 10.79 112.84 11.59L112.84 11.59L112.84 11.59Q113.47 12.39 114.55 12.39L114.55 12.39L114.55 12.39Q115.63 12.39 116.26 11.59L116.26 11.59L116.26 11.59Q116.89 10.79 116.89 9.44ZM124.54 12.68L124.54 12.21L124.54 12.21Q124.46 12.28 124.29 12.37L124.29 12.37L124.29 12.37Q124.12 12.46 123.88 12.56L123.88 12.56L123.88 12.56Q123.63 12.66 123.32 12.72L123.32 12.72L123.32 12.72Q123.00 12.78 122.61 12.78L122.61 12.78L122.61 12.78Q121.98 12.78 121.39 12.59L121.39 12.59L121.39 12.59Q120.81 12.39 120.36 11.97L120.36 11.97L120.36 11.97Q119.92 11.55 119.66 10.88L119.66 10.88L119.66 10.88Q119.39 10.22 119.39 9.27L119.39 9.27L119.39 9.27Q119.39 8.50 119.63 7.84L119.63 7.84L119.63 7.84Q119.87 7.18 120.31 6.70L120.31 6.70L120.31 6.70Q120.75 6.22 121.39 5.94L121.39 5.94L121.39 5.94Q122.02 5.67 122.82 5.67L122.82 5.67L122.82 5.67Q123.83 5.67 124.44 5.80L124.44 5.80L124.44 5.80Q125.05 5.94 125.44 6.06L125.44 6.06L125.44 12.67L125.44 12.67Q125.44 14.29 124.60 14.99L124.60 14.99L124.60 14.99Q123.76 15.68 122.07 15.68L122.07 15.68L122.07 15.68Q121.37 15.68 120.80 15.57L120.80 15.57L120.80 15.57Q120.23 15.47 119.83 15.33L119.83 15.33L120.01 14.50L120.01 14.50Q120.34 14.66 120.92 14.77L120.92 14.77L120.92 14.77Q121.51 14.88 122.09 14.88L122.09 14.88L122.09 14.88Q123.38 14.88 123.96 14.38L123.96 14.38L123.96 14.38Q124.54 13.89 124.54 12.68L124.54 12.68ZM124.53 11.35L124.53 6.69L124.53 6.69Q124.29 6.62 123.91 6.56L123.91 6.56L123.91 6.56Q123.54 6.50 122.84 6.50L122.84 6.50L122.84 6.50Q122.25 6.50 121.79 6.70L121.79 6.70L121.79 6.70Q121.34 6.90 121.02 7.27L121.02 7.27L121.02 7.27Q120.69 7.64 120.53 8.16L120.53 8.16L120.53 8.16Q120.36 8.67 120.36 9.28L120.36 9.28L120.36 9.28Q120.36 10.00 120.55 10.51L120.55 10.51L120.55 10.51Q120.75 11.02 121.06 11.34L121.06 11.34L121.06 11.34Q121.38 11.66 121.79 11.81L121.79 11.81L121.79 11.81Q122.19 11.96 122.61 11.96L122.61 11.96L122.61 11.96Q123.23 11.96 123.74 11.77L123.74 11.77L123.74 11.77Q124.25 11.59 124.53 11.35L124.53 11.35Z"></path></g><linearGradient data-v-d3f97b9e="" gradientTransform="rotate(25)" id="f41d0acf-f0c6-4317-993e-4afc8a12d79d" x1="0%" y1="0%" x2="100%" y2="0%"><stop data-v-d3f97b9e="" offset="0%" style="stop-color: rgb(140, 72, 210); stop-opacity: 1;"></stop><stop data-v-d3f97b9e="" offset="100%" style="stop-color: rgb(207, 112, 90); stop-opacity: 1;"></stop></linearGradient><g data-v-d3f97b9e="" id="a0868d4d-68a6-4c7b-9168-138260b2d317" transform="matrix(1.0021748542785645,0,0,1.0021748542785645,-5.248178482055664,-5.011460304260254)" stroke="none" fill="url(#f41d0acf-f0c6-4317-993e-4afc8a12d79d)"><g><path d="M86.281 5.281c-2.75.216-3.496 3.985-7.031 6.157-7.259-5.208-10.39-2.101-17.5-.938-4.99 1.75-7.622-.733-16.5-2.469 1.202 4.43 2.752 4.454 2.969 4.875 5.266.712 6.83-.493 10.218 2.875-4.398-3.716-7.652-1.045-14.406-3.875-1.336-.635-1.17-.793-3.968-2.344-1.015 5.093 1.43 9.368 4.718 12.25 2.093 1.835 3.825 2.732 8.125 1.97 1.863-.331-3.144 3.144-3.527 5.597 1.705 2.03 2.778 3.647 6.304 5.621-7.736-2.732-7.133-10.494-16.027-9.063-14.31 2.304-14.866 1.925-34.343-2.03C9.957 36.84 21.011 31.253 40.03 34c-13.61-1.271-21.366.46-28.718-2 5.63 11.068 19.625 6.204 31.312 5.438-13 1.927-19.1 2.873-24.719 1.03 6.585 10.628 18.953 4.66 26.188 2.376-5.102 2.31-9.356 4.507-16.875 3.937 6.923 7.826 15.694 1.27 18.875-1.281-4.003 4.202-8.266 6.17-15.219 5.219-6.36 4.269-7.219 16.343-7.219 16.343s1.367-.03 1.532.032c-.092.038-.392.096-1.094.187-2.897.379-5.013.914-6.219 4.375-2.504 7.185 5.838 6.524 3.563 1.094 2.565-1.09 4.017-.628 5.156.688 1.7 1.965.854 5.358-.094 7.78-1.098 2.806-3.826 4.708-6.063 6.72-1.53 1.376-5.374 1.104-4.968 3.624.4 2.483-5.156 5.284-2.844 5.5 2.312.217 4.825-2.438 10.344-3.468 2.961-.553 15.91-2.192 18.977-2.991 6.701-1.746 9.594-5.447 10.813-7.116 1.219-1.67 2.408-10.17-.705-13.496 3.174 1.702 2.499 9.552 1.831 12.285 12.45.499 27.938-21.485 24.585-33.47 2.145-3.017 5.363-2.679 15.124-10.744-4.18-1.257-1.854-1.012-3.302-.77 1.628-1.154 2.157-3.341 2.754-6.338-4.197 1.36-5.192 4.829-9.109 5.921-3.916 1.092-3.64 2.624-15.093 1.562 7.737-.007 9.89.484 15.312-2.437 3.714-2.121 5.462-7.854 6.875-17.781-2.807 3.046-4.655 3.918-6.25 3.75 3.038-.3 5.79-3.515 8.5-7.094 1.435-4.709-3.143-7.287-6.437-7.594a3.18 3.18 0 0 0-.563 0zm-67.812 6.25c.435 3.783.044 5.778 3.781 9.969 5.716 4.708 11.938 4.906 11.938 4.906s4.965-1.038 7.5-1.093c1.688-.037 2.259.069 3.276.5 1.606.68 2.943 2.46 4.165 3.165.351-1.59 3.371-4.697 3.371-4.697s-2.53.262-3.781.063c-1.172-.187-2.266-.727-3.375-1.157-9.105-3.527-13.69-.614-26.875-11.656zm53.843 4.594c.505-.022 1.116.125 1.813.531.938.547.37 2.57-.344 2.157-1.439-.834-2.326.246-3.5-.375-.047.087-.26.2-.844.28-.943.132-.568-.248.47-.874.21-.127.892-1.653 2.406-1.719zm-50.718 5.438l2.281 5.218s2.553.45 8.844-.093c-2.634-.827-4.85-1.24-7.032-2.407-1.34-.439-4.093-2.718-4.093-2.718zM24.53 70.53c-.936-.095-1.596 1.171-2.187 1.906-.513.638-.214 1.946-1.625 2.594-1.797.745-2.203-.36-2.907-.187-2.63 1.548-4.858 5.834-6.99 5.236-1.748.307 1.813.96-1.844 4.112 1.036.9 3.806-1.884 6.321-2.317 3.057-.526 5.905 2.215 8.514.531 2.523-3.021 3.662-6.13 3.312-8.625-.223-1.589-1.003-3.088-2.594-3.25z" opacity=".97"></path><path d="M17.334 73.059c-1.508-.694-1.037-3.007-2.813-3.31-.533.673-.222.831.373 1.081 1.294.623.537 2-.665 2.039-1.202.037-1.988-1.027-2.083-2.215-.023-1.468 1.069-2.953 2.484-3.323 1.51-.395 2.656.9 3.179 1.962-.734 1.639-.749 2.528-.475 3.766z" opacity=".97"></path><path d="M10.868 68.798c.565-.092 1.315.44 1.315.44s-.544.81-.073 2.2c-1.095-.35-.613-1.377-1.279-1.65-.412-.169-.805.026-1.096.807-.587-.692.24-1.651 1.133-1.797z" opacity=".97"></path></g></g><!----></svg>