<svg data-v-d3f97b9e="" xmlns="http://www.w3.org/2000/svg" viewBox="0 0 58.98216615919966 60"><!----><!----><!----><!----><g data-v-d3f97b9e="" id="e9fbe95e-8c53-408e-9802-0f0ff0af900e" transform="matrix(0.668116569519043,0,0,0.668116569519043,-3.5493690967559814,-3.5206611156463623)" stroke="none" fill="black"><g><path d="M86.281 5.281c-2.75.216-3.496 3.985-7.031 6.157-7.259-5.208-10.39-2.101-17.5-.938-4.99 1.75-7.622-.733-16.5-2.469 1.202 4.43 2.752 4.454 2.969 4.875 5.266.712 6.83-.493 10.218 2.875-4.398-3.716-7.652-1.045-14.406-3.875-1.336-.635-1.17-.793-3.968-2.344-1.015 5.093 1.43 9.368 4.718 12.25 2.093 1.835 3.825 2.732 8.125 1.97 1.863-.331-3.144 3.144-3.527 5.597 1.705 2.03 2.778 3.647 6.304 5.621-7.736-2.732-7.133-10.494-16.027-9.063-14.31 2.304-14.866 1.925-34.343-2.03C9.957 36.84 21.011 31.253 40.03 34c-13.61-1.271-21.366.46-28.718-2 5.63 11.068 19.625 6.204 31.312 5.438-13 1.927-19.1 2.873-24.719 1.03 6.585 10.628 18.953 4.66 26.188 2.376-5.102 2.31-9.356 4.507-16.875 3.937 6.923 7.826 15.694 1.27 18.875-1.281-4.003 4.202-8.266 6.17-15.219 5.219-6.36 4.269-7.219 16.343-7.219 16.343s1.367-.03 1.532.032c-.092.038-.392.096-1.094.187-2.897.379-5.013.914-6.219 4.375-2.504 7.185 5.838 6.524 3.563 1.094 2.565-1.09 4.017-.628 5.156.688 1.7 1.965.854 5.358-.094 7.78-1.098 2.806-3.826 4.708-6.063 6.72-1.53 1.376-5.374 1.104-4.968 3.624.4 2.483-5.156 5.284-2.844 5.5 2.312.217 4.825-2.438 10.344-3.468 2.961-.553 15.91-2.192 18.977-2.991 6.701-1.746 9.594-5.447 10.813-7.116 1.219-1.67 2.408-10.17-.705-13.496 3.174 1.702 2.499 9.552 1.831 12.285 12.45.499 27.938-21.485 24.585-33.47 2.145-3.017 5.363-2.679 15.124-10.744-4.18-1.257-1.854-1.012-3.302-.77 1.628-1.154 2.157-3.341 2.754-6.338-4.197 1.36-5.192 4.829-9.109 5.921-3.916 1.092-3.64 2.624-15.093 1.562 7.737-.007 9.89.484 15.312-2.437 3.714-2.121 5.462-7.854 6.875-17.781-2.807 3.046-4.655 3.918-6.25 3.75 3.038-.3 5.79-3.515 8.5-7.094 1.435-4.709-3.143-7.287-6.437-7.594a3.18 3.18 0 0 0-.563 0zm-67.812 6.25c.435 3.783.044 5.778 3.781 9.969 5.716 4.708 11.938 4.906 11.938 4.906s4.965-1.038 7.5-1.093c1.688-.037 2.259.069 3.276.5 1.606.68 2.943 2.46 4.165 3.165.351-1.59 3.371-4.697 3.371-4.697s-2.53.262-3.781.063c-1.172-.187-2.266-.727-3.375-1.157-9.105-3.527-13.69-.614-26.875-11.656zm53.843 4.594c.505-.022 1.116.125 1.813.531.938.547.37 2.57-.344 2.157-1.439-.834-2.326.246-3.5-.375-.047.087-.26.2-.844.28-.943.132-.568-.248.47-.874.21-.127.892-1.653 2.406-1.719zm-50.718 5.438l2.281 5.218s2.553.45 8.844-.093c-2.634-.827-4.85-1.24-7.032-2.407-1.34-.439-4.093-2.718-4.093-2.718zM24.53 70.53c-.936-.095-1.596 1.171-2.187 1.906-.513.638-.214 1.946-1.625 2.594-1.797.745-2.203-.36-2.907-.187-2.63 1.548-4.858 5.834-6.99 5.236-1.748.307 1.813.96-1.844 4.112 1.036.9 3.806-1.884 6.321-2.317 3.057-.526 5.905 2.215 8.514.531 2.523-3.021 3.662-6.13 3.312-8.625-.223-1.589-1.003-3.088-2.594-3.25z" opacity=".97"></path><path d="M17.334 73.059c-1.508-.694-1.037-3.007-2.813-3.31-.533.673-.222.831.373 1.081 1.294.623.537 2-.665 2.039-1.202.037-1.988-1.027-2.083-2.215-.023-1.468 1.069-2.953 2.484-3.323 1.51-.395 2.656.9 3.179 1.962-.734 1.639-.749 2.528-.475 3.766z" opacity=".97"></path><path d="M10.868 68.798c.565-.092 1.315.44 1.315.44s-.544.81-.073 2.2c-1.095-.35-.613-1.377-1.279-1.65-.412-.169-.805.026-1.096.807-.587-.692.24-1.651 1.133-1.797z" opacity=".97"></path></g></g><!----></svg>